<?xml version="1.0" encoding="UTF-8"?>
<svg version="1.1" xmlns="http://www.w3.org/2000/svg" width="1197" height="147">
<path d="M0 0 C395.01 0 790.02 0 1197 0 C1197 48.51 1197 97.02 1197 147 C801.99 147 406.98 147 0 147 C0 98.49 0 49.98 0 0 Z " fill="#FEFEFE" transform="translate(0,0)"/>
<path d="M0 0 C4.6777877 3.01510466 8.79867138 7.4840615 11.296875 12.48046875 C11.626875 7.86046875 11.956875 3.24046875 12.296875 -1.51953125 C15.266875 -1.51953125 18.236875 -1.51953125 21.296875 -1.51953125 C21.38978103 10.17261947 21.46074447 21.86468156 21.50412369 33.557127 C21.52494936 38.98711106 21.55317513 44.41684154 21.59863281 49.84667969 C21.64226976 55.09218952 21.66604982 60.33745628 21.67638397 65.5831337 C21.68374337 67.57890776 21.69811427 69.57466934 21.71979523 71.5703392 C21.94723919 93.38434778 21.94723919 93.38434778 15.32421875 102.06640625 C4.96728614 110.93271492 -5.35126153 112.62622888 -18.62792969 111.70800781 C-27.51294005 110.73379256 -35.69762551 106.27796473 -41.421875 99.421875 C-42.703125 97.48046875 -42.703125 97.48046875 -42.703125 95.41796875 C-41.28345622 92.66736048 -39.43995538 91.81550796 -36.703125 90.48046875 C-36.043125 90.48046875 -35.383125 90.48046875 -34.703125 90.48046875 C-33.61837845 91.71473442 -32.58451635 92.99402177 -31.578125 94.29296875 C-26.87343761 99.70671289 -22.96182495 101.2123049 -15.953125 101.7890625 C-8.34822393 102.11713115 -1.14500124 102.0268044 5.296875 97.48046875 C9.30124886 93.57877115 11.11825523 89.44868488 11.45581055 83.83935547 C11.49346192 80.75901795 11.47118776 77.68561951 11.421875 74.60546875 C11.41285156 73.53554687 11.40382813 72.465625 11.39453125 71.36328125 C11.37106842 68.73544436 11.33823959 66.10807469 11.296875 63.48046875 C10.70261719 64.40472656 10.10835937 65.32898438 9.49609375 66.28125 C4.86999671 73.01086541 -0.61950346 76.96400641 -8.703125 78.48046875 C-19.59300719 79.65814626 -27.41157807 76.90648401 -35.91796875 70.17578125 C-42.63342692 63.79830018 -46.67309245 53.576364 -46.94140625 44.390625 C-47.27850206 29.7254386 -45.47217313 16.88190016 -35.078125 5.73828125 C-25.30719883 -3.35410838 -12.29566913 -5.56519665 0 0 Z " fill="#B729F3" transform="translate(1173.703125,33.51953125)"/>
<path d="M0 0 C3.96 0 7.92 0 12 0 C18.78538165 15.24530478 25.20016777 30.63691745 31.5625 46.0625 C31.9607901 47.02802795 32.3590802 47.99355591 32.7694397 48.98834229 C34.72946663 53.74201766 36.68580664 58.49717145 38.63720703 63.25439453 C40.27701385 67.25011817 41.93125227 71.23953688 43.59326172 75.22607422 C44.4254636 77.23274413 45.25765786 79.2394172 46.08984375 81.24609375 C46.4826503 82.18163589 46.87545685 83.11717804 47.28016663 84.08106995 C47.81618752 85.37789955 47.81618752 85.37789955 48.36303711 86.70092773 C48.6800206 87.46090561 48.99700409 88.22088348 49.32359314 89.00389099 C50 91 50 91 50 94 C50.66 94 51.32 94 52 94 C52.17147049 93.46134308 52.34294098 92.92268616 52.51960754 92.3677063 C54.39200412 86.6054311 56.5512974 81.01835376 58.88671875 75.4296875 C59.26131226 74.52595398 59.63590576 73.62222046 60.02185059 72.69110107 C61.24098787 69.75125255 62.46427879 66.8131513 63.6875 63.875 C64.9639543 60.79922808 66.23925712 57.7229804 67.51448059 54.646698 C68.3826183 52.55258251 69.25109993 50.45860957 70.11991882 48.36477661 C74.50395503 37.79639142 78.84941205 27.21231164 83.1875 16.625 C83.88303925 14.92821553 84.57859538 13.23143797 85.27416992 11.53466797 C86.8500545 7.69002746 88.42526341 3.84511085 90 0 C93.96 0 97.92 0 102 0 C102 35.64 102 71.28 102 108 C99.03 108 96.06 108 93 108 C92.67 79.62 92.34 51.24 92 22 C89.40125 28.208125 86.8025 34.41625 84.125 40.8125 C74.75 63.20833333 65.375 85.60416667 56 108 C53.03 108 50.06 108 47 108 C44.22839043 102.58555118 41.7227052 97.14271823 39.41796875 91.515625 C39.08187088 90.70228699 38.74577301 89.88894897 38.39949036 89.05096436 C37.32604277 86.45178105 36.25658604 83.8509799 35.1875 81.25 C27.17613268 61.8117608 19.08646895 42.40752548 11 23 C10.67 51.05 10.34 79.1 10 108 C6.7 108 3.4 108 0 108 C0 72.36 0 36.72 0 0 Z " fill="#B72AF3" transform="translate(654,5)"/>
<path d="M0 0 C9.8258697 7.29159562 15.37066462 15.09879774 18 27 C18 31.62 18 36.24 18 41 C-1.8 41 -21.6 41 -42 41 C-40.02042389 51.88766859 -38.53228349 59.79456245 -29.84375 66.84375 C-23.0794217 71.08578639 -15.69280798 70.76455161 -8 70 C-2.75170352 68.44023842 1.48183202 66.2663018 4.625 61.6875 C5.07875 60.800625 5.5325 59.91375 6 59 C12.75 59.875 12.75 59.875 15 61 C14.7332717 65.401017 12.94006685 68.04812366 10.078125 71.22265625 C0.45519894 79.45279038 -10.80234214 80.94648493 -23 80 C-31.8262325 77.88701684 -39.19937866 72.97495626 -44.3125 65.5 C-45.22554996 64.01041713 -46.1234255 62.51133534 -47 61 C-47.5775 60.05125 -48.155 59.1025 -48.75 58.125 C-53.66337383 45.84156543 -53.50159334 31.35399676 -49 19 C-44.58209299 9.65545729 -38.34501666 2.49945247 -29 -2 C-20.23478681 -4.27470931 -8.03121022 -4.6737798 0 0 Z " fill="#B728F3" transform="translate(129,35)"/>
<path d="M0 0 C5.60092588 5.60092588 7.16638288 11.90899911 7.34057617 19.59960938 C7.34010471 22.18103832 7.32336512 24.76249998 7.29296875 27.34375 C7.28736365 28.72236669 7.28309788 30.10098942 7.28010559 31.47961426 C7.26872857 35.08330189 7.23932457 38.68661862 7.20599365 42.29016113 C7.17513727 45.97724391 7.16156722 49.66438744 7.14648438 53.3515625 C7.11444662 60.56787622 7.06333872 67.78388586 7 75 C4.03 75 1.06 75 -2 75 C-2.33 71.04 -2.66 67.08 -3 63 C-3.495 63.86625 -3.99 64.7325 -4.5 65.625 C-8.46919723 71.56472068 -14.18422845 75.14422062 -21 77 C-30.82379812 78.23689468 -38.86492644 76.80536983 -47 71 C-52.23762452 65.31479666 -54.42963276 60.24136834 -54.4375 52.5 C-54.45683594 51.2315625 -54.47617187 49.963125 -54.49609375 48.65625 C-53.74792253 43.14216921 -50.94545866 39.29617767 -46.625 35.875 C-36.06677173 28.48231001 -21.59324276 27.85978995 -9.15966797 26.32543945 C-7.05917322 26.00891679 -5.05034675 25.55058303 -3 25 C-2.45561392 16.03283531 -2.45561392 16.03283531 -6 8 C-12.06097798 2.39359537 -18.19312793 2.4984771 -26.03125 2.65625 C-31.19300867 3.10333146 -34.33860879 4.3667013 -38 8 C-38.89373895 9.11017146 -39.76986843 10.23482457 -40.625 11.375 C-41.40875 12.24125 -42.1925 13.1075 -43 14 C-46.4271556 14.06854311 -48.15262238 13.79022889 -50.6796875 11.43359375 C-51.11539063 10.96050781 -51.55109375 10.48742187 -52 10 C-47.38172715 1.55193991 -41.43065383 -3.56391707 -32.125 -6.375 C-20.57435099 -8.6664243 -9.42521661 -7.22110136 0 0 Z " fill="#B729F3" transform="translate(833,38)"/>
<path d="M0 0 C3.79645382 2.47594814 5.97276454 4.94552908 8 9 C8 9.66 8 10.32 8 11 C8.66 11 9.32 11 10 11 C10.2784375 9.948125 10.2784375 9.948125 10.5625 8.875 C13.1956058 3.60878839 18.33960997 -0.45121591 23.859375 -2.52734375 C31.49082297 -4.21238974 39.16900197 -3.82532682 46.1328125 -0.203125 C52.64231891 3.99128499 55.90503862 9.72253833 58 17 C58.24050903 20.07528687 58.24050903 20.07528687 58.22705078 23.37255859 C58.22689972 24.61339203 58.22674866 25.85422546 58.22659302 27.13265991 C58.21638225 28.47125411 58.2059503 29.80984663 58.1953125 31.1484375 C58.19157813 32.52991531 58.18873316 33.91139578 58.18673706 35.2928772 C58.17913392 38.91293771 58.15951437 42.53283543 58.1373291 46.15283203 C58.11679878 49.85316771 58.10772004 53.55352992 58.09765625 57.25390625 C58.07626499 64.50267804 58.04216964 71.75131613 58 79 C54.7 79 51.4 79 48 79 C47.99413376 78.23436234 47.98826752 77.46872467 47.98222351 76.67988586 C47.92425937 69.45559791 47.85216184 62.23165338 47.76428509 55.00767231 C47.71960518 51.29395541 47.68034414 47.58034761 47.65356445 43.86645508 C47.62750722 40.28063327 47.58708857 36.69523181 47.53681374 33.10967064 C47.52016121 31.74343288 47.50863685 30.37712244 47.50238609 29.0107975 C47.49272839 27.09342502 47.4629542 25.17618611 47.43237305 23.2590332 C47.42126999 22.16871292 47.41016693 21.07839264 47.39872742 19.95503235 C46.95079223 16.63531338 45.82556397 14.76851892 44 12 C44 11.34 44 10.68 44 10 C36.5977441 6.99908545 28.5716158 4.94780416 20.73046875 7.8359375 C16.24199495 10.75002289 13.65218668 14.96518233 12 20 C11.4132833 24.56347615 11.39514585 29.09075677 11.390625 33.6875 C11.37408875 34.98574707 11.35755249 36.28399414 11.34051514 37.62158203 C11.29709492 41.04755593 11.27689964 44.47327504 11.26177979 47.8994751 C11.24211629 51.40579132 11.20015727 54.911836 11.16015625 58.41796875 C11.0851297 65.27854283 11.03467226 72.13910638 11 79 C8.03 79 5.06 79 2 79 C1.99413376 78.2786084 1.98826752 77.5572168 1.98222351 76.81396484 C1.92412062 69.9879659 1.85194415 63.16224219 1.76428509 56.33656311 C1.71971488 52.82807754 1.68043038 49.31970451 1.65356445 45.81103516 C1.62238034 41.76956511 1.56759755 37.72870463 1.51171875 33.6875 C1.50532883 32.4382373 1.4989389 31.18897461 1.49235535 29.90185547 C1.33525881 18.72197836 1.33525881 18.72197836 -4.5 9.5625 C-9.95831331 6.15105418 -15.75176348 6.31895014 -22 7 C-26.90855214 8.69151394 -29.29048455 10.88165096 -32.06933594 15.26171875 C-34.94148618 21.15941216 -34.60304288 27.2490848 -34.609375 33.6875 C-34.62591125 34.98574707 -34.64244751 36.28399414 -34.65948486 37.62158203 C-34.70290508 41.04755593 -34.72310036 44.47327504 -34.73822021 47.8994751 C-34.75788371 51.40579132 -34.79984273 54.911836 -34.83984375 58.41796875 C-34.9148703 65.27854283 -34.96532774 72.13910638 -35 79 C-38.3 79 -41.6 79 -45 79 C-45 52.27 -45 25.54 -45 -2 C-41.7 -2 -38.4 -2 -35 -2 C-34.67 1.3 -34.34 4.6 -34 8 C-33.175 6.9275 -32.35 5.855 -31.5 4.75 C-23.11981576 -4.8803749 -11.20624351 -5.28681649 0 0 Z " fill="#B82CF3" transform="translate(212,34)"/>
<path d="M0 0 C6.92400181 5.40694523 10.58704431 12.99993905 11.8984375 21.62890625 C12.7890343 33.19206464 11.51313032 44.01014577 4.7109375 53.69140625 C0.03507057 59.05780205 -4.47516262 61.19639984 -11.5078125 62.03515625 C-19.06436144 62.35808569 -24.4371952 61.81683144 -30.1015625 56.62890625 C-30.65328125 56.14421875 -31.205 55.65953125 -31.7734375 55.16015625 C-39.04127848 47.82035645 -40.50692883 38.05175127 -40.6640625 28.12890625 C-40.59810247 18.69104852 -38.42856184 10.8010316 -32.7265625 3.12890625 C-23.34314274 -5.80768399 -10.86544435 -7.08879362 0 0 Z " fill="#FEFDFE" transform="translate(1039.1015625,44.37109375)"/>
<path d="M0 0 C7.08909068 4.20638991 10.99020551 10.78984009 13.625 18.4375 C16.67590695 30.43773398 15.27451341 44.06301619 9.26953125 54.87890625 C5.44341931 60.44882256 1.04273786 63.29825405 -5.375 65.4375 C-13.25889089 66.08108293 -18.3044955 65.31269762 -24.8359375 60.69921875 C-27.68729455 58.15931762 -28.9812367 55.93027447 -30.625 52.5 C-31.12515625 51.48035156 -31.6253125 50.46070313 -32.140625 49.41015625 C-34.67866569 43.29797598 -34.62194236 37.27517075 -34.6875 30.75 C-34.71650391 29.80705078 -34.74550781 28.86410156 -34.77539062 27.89257812 C-34.85694022 18.76529615 -32.44844563 10.63791667 -26.0546875 3.91015625 C-18.80489566 -2.44605659 -8.93761357 -3.95515083 0 0 Z " fill="#FEFCFE" transform="translate(909.375,40.5625)"/>
<path d="M0 0 C6.37578004 3.8636954 11.1084316 10.30241662 13.0546875 17.484375 C14.77033427 28.861822 15.17895758 42.17454724 9.5 52.4375 C9.12617187 53.11941406 8.75234375 53.80132812 8.3671875 54.50390625 C5.25044935 59.44734192 1.2285619 62.30602195 -4.41796875 64.01953125 C-10.88554719 65.31790066 -16.91161263 65.08826368 -22.6875 61.7578125 C-29.54401637 56.76319497 -33.62063133 49.39341217 -35.08984375 41.11328125 C-36.54662799 28.05771966 -36.12968149 16.29383299 -28.20703125 5.421875 C-21.12854594 -2.8066617 -9.98077689 -4.41457439 0 0 Z " fill="#FEFDFE" transform="translate(602.5,41.5625)"/>
<path d="M0 0 C6.56995588 2.87753882 10.43683684 8.70391837 13.328125 15.0703125 C17.13875426 25.69996253 16.90745986 38.23691066 12.84375 48.75390625 C10.00595343 54.37107417 5.89801955 59.82709941 -0.265625 61.984375 C-8.10900885 63.39286999 -15.53355342 63.50955207 -22.484375 59.3828125 C-28.36418584 54.20297914 -32.97498447 48.07894403 -33.69067383 40.07592773 C-33.78941053 37.40442385 -33.80633447 34.74355982 -33.796875 32.0703125 C-33.81298828 31.17119141 -33.82910156 30.27207031 -33.84570312 29.34570312 C-33.85197469 20.6721251 -31.9602127 13.26672276 -26.484375 6.3828125 C-18.79176081 -1.08171879 -10.50369943 -2.60940961 0 0 Z " fill="#FEFDFE" transform="translate(1170.484375,40.6171875)"/>
<path d="M0 0 C2.97 0 5.94 0 9 0 C9 5.28 9 10.56 9 16 C9.66 16 10.32 16 11 16 C11.185625 15.34 11.37125 14.68 11.5625 14 C14.67165466 7.51132941 19.25197019 2.62600216 26 0 C34.5353676 -1.33118507 44.40317927 -1.27108864 51.89453125 3.33203125 C60.21132114 9.920657 65.78021663 18.55976553 68 29 C69.10340708 44.63494394 68.89642426 60.08773539 59 73 C52.55688176 80.07008833 46.34511455 82.98630698 36.82910156 83.50219727 C29.94579764 83.68532696 24.62918868 83.39264826 18.95703125 79.09375 C16.03147763 75.96381639 13.57058853 72.42745138 11 69 C10.67 83.19 10.34 97.38 10 112 C6.7 112 3.4 112 0 112 C0 75.04 0 38.08 0 0 Z M16.75 15.125 C10.94164641 22.74204418 9.35828226 30.59280883 9.5625 40 C9.55541016 40.92039063 9.54832031 41.84078125 9.54101562 42.7890625 C9.63556018 53.11623693 12.27377728 62.03901175 19 70 C24.22284606 74.56683641 29.34861062 75.36238625 36.08203125 75.2734375 C42.18904648 74.7011603 47.05938443 72.3607402 51.3125 67.9375 C54.76582157 63.50573732 56.40842842 58.32972433 58 53 C58.19464844 52.38769531 58.38929688 51.77539062 58.58984375 51.14453125 C60.86057752 39.27183754 59.16017458 26.8225568 52.38671875 16.75390625 C48.40155054 11.7135104 43.63756241 8.43149016 37.16796875 7.6640625 C28.57328552 7.55141921 22.7752713 8.78497572 16.75 15.125 Z " fill="#B82BF3" transform="translate(865,31)"/>
<path d="M0 0 C3.3 0 6.6 0 10 0 C10 35.64 10 71.28 10 108 C7.03 108 4.06 108 1 108 C1 103.05 1 98.1 1 93 C0.34 93 -0.32 93 -1 93 C-1.20625 93.680625 -1.4125 94.36125 -1.625 95.0625 C-4.64287993 101.50978893 -9.33336002 106.28953348 -16 109 C-18.83819927 109.51041837 -21.56083305 109.52755666 -24.4375 109.4375 C-25.56671875 109.41333008 -25.56671875 109.41333008 -26.71875 109.38867188 C-35.66781663 109.0696182 -41.19114865 106.76338739 -47.81640625 100.5859375 C-56.132663 90.73734721 -58.19750732 79.90153618 -58.3125 67.375 C-58.34150391 66.34503906 -58.37050781 65.31507812 -58.40039062 64.25390625 C-58.49540844 52.63249685 -54.77446681 42.70435401 -47 34 C-39.39692875 27.6022937 -32.12350423 25.52225877 -22.26171875 25.6796875 C-15.54499944 26.33929347 -9.83272467 29.30535318 -5 34 C-3.68 35.98 -2.36 37.96 -1 40 C-0.67 26.8 -0.34 13.6 0 0 Z M-41 41 C-49.36932706 51.84578021 -50.13394806 63.29936342 -48.72265625 76.6171875 C-47.16351891 84.96228452 -43.51684403 92.69708182 -36.67578125 97.8828125 C-31.35242222 101.43171852 -26.26344923 101.62061616 -20 101 C-14.78263555 99.75906436 -10.97372871 97.64101525 -7 94 C-5.17388974 91.14158041 -5.17388974 91.14158041 -3.75 88 C-3.24984375 86.96875 -2.7496875 85.9375 -2.234375 84.875 C0.21981564 79.15891041 0.21580927 73.96255769 0.25 67.8125 C0.270625 66.90435547 0.29125 65.99621094 0.3125 65.06054688 C0.36252789 56.32442584 -1.48054901 48.93873839 -7 42 C-12.35594341 36.67364743 -17.22925296 34.70055325 -24.75 34.5 C-31.72437111 34.63131661 -36.11823905 35.9478285 -41 41 Z " fill="#B72BF3" transform="translate(616,5)"/>
<path d="M0 0 C9.77851421 5.8452571 15.68551849 14.55722152 18.85668945 25.42797852 C19.71863039 29.46437358 19.53952699 33.57533178 19.5625 37.6875 C19.583125 38.58726563 19.60375 39.48703125 19.625 40.4140625 C19.69381818 52.38842548 15.75012559 63.06882615 7.5625 71.875 C-0.43127442 79.46077459 -9.71452681 80.94828834 -20.40234375 80.83984375 C-25.16505319 80.43776008 -28.63854807 79.03343834 -32.6875 76.5625 C-33.73550781 75.92634766 -33.73550781 75.92634766 -34.8046875 75.27734375 C-40.21291113 71.61403755 -43.43789953 67.16525943 -46.6875 61.5625 C-47.265 60.61375 -47.8425 59.665 -48.4375 58.6875 C-53.35087383 46.40406543 -53.18909334 31.91649676 -48.6875 19.5625 C-44.40587714 10.50621893 -38.13194116 2.69584457 -28.8828125 -1.546875 C-19.59408819 -4.13590818 -8.82301073 -4.01351695 0 0 Z M-34.6875 13.5625 C-42.44029651 25.18095682 -43.39878157 37.59807566 -41.0703125 51.15625 C-38.69992263 59.29528778 -34.15714707 65.84988661 -26.85546875 70.28125 C-20.06424674 73.0278848 -11.60212338 72.69160291 -4.75 70.125 C2.42978072 66.28154861 6.13434259 59.87443732 8.75 52.375 C12.02921506 40.27582721 11.32104677 28.25979302 5.0625 17.3125 C1.59814415 12.18857249 -2.31158643 8.53046479 -8.0625 6.1875 C-18.06133109 4.4635636 -27.61892215 5.45265855 -34.6875 13.5625 Z " fill="#B729F3" transform="translate(1040.6875,34.4375)"/>
<path d="M0 0 C20.46 0 40.92 0 62 0 C62 2.97 62 5.94 62 9 C44.84 9 27.68 9 10 9 C10 22.2 10 35.4 10 49 C25.51 49 41.02 49 57 49 C57 51.97 57 54.94 57 58 C41.16 58 25.32 58 9 58 C9 74.5 9 91 9 108 C6.03 108 3.06 108 0 108 C0 72.36 0 36.72 0 0 Z " fill="#B628F3" transform="translate(3,5)"/>
<path d="M0 0 C6.88142677 4.41398291 11.06205985 9.09188297 13.49925232 17.00579834 C14.06963213 19.78800462 14.08043172 22.37856352 14.07446289 25.21972656 C14.07438736 26.42066956 14.07431183 27.62161255 14.07423401 28.85894775 C14.06907272 30.15072937 14.06391144 31.44251099 14.05859375 32.7734375 C14.05672767 34.11293485 14.05530466 35.45243288 14.05430603 36.79193115 C14.05049585 40.31003722 14.04067841 43.82810171 14.02960205 47.34619141 C14.01935567 50.93912189 14.0148015 54.53205911 14.00976562 58.125 C13.99905475 65.16928779 13.98199637 72.21354743 13.9609375 79.2578125 C10.6609375 79.2578125 7.3609375 79.2578125 3.9609375 79.2578125 C3.95951248 78.52389282 3.95808746 77.78997314 3.95661926 77.03381348 C3.93873012 70.09000857 3.89694218 63.14670608 3.82884693 56.20322418 C3.79467272 52.63409659 3.76948209 49.06539264 3.76538086 45.49609375 C3.76107699 42.04622857 3.73244526 38.59731748 3.68750572 35.14775085 C3.66834867 33.20263784 3.6738678 31.25733183 3.67988586 29.31213379 C3.56257884 22.14200121 3.01540547 16.65108198 -2.0390625 11.2578125 C-8.29451811 6.36004375 -15.3670154 6.43652286 -23.0390625 7.2578125 C-27.80909392 8.87621602 -30.84513963 11.37331171 -34.0390625 15.2578125 C-37.39182436 22.24658241 -37.50937045 28.61830682 -37.55078125 36.2890625 C-37.56873245 37.52072144 -37.58668365 38.75238037 -37.60517883 40.0213623 C-37.65911711 43.93347814 -37.69312576 47.84547308 -37.7265625 51.7578125 C-37.75813143 54.41931643 -37.79424081 57.0807348 -37.83007812 59.7421875 C-37.91483437 66.24728741 -37.98325395 72.75240328 -38.0390625 79.2578125 C-41.0090625 79.2578125 -43.9790625 79.2578125 -47.0390625 79.2578125 C-47.0390625 52.5278125 -47.0390625 25.7978125 -47.0390625 -1.7421875 C-44.0690625 -1.7421875 -41.0990625 -1.7421875 -38.0390625 -1.7421875 C-37.7090625 1.8878125 -37.3790625 5.5178125 -37.0390625 9.2578125 C-36.0696875 8.0203125 -35.1003125 6.7828125 -34.1015625 5.5078125 C-25.50254628 -4.15323361 -11.51812155 -6.12301629 0 0 Z " fill="#B72BF3" transform="translate(376.0390625,33.7421875)"/>
<path d="M0 0 C18.81 0 37.62 0 57 0 C57 8.57533701 56.74154644 10.59638205 51.75 16.5 C50.63687655 17.89649103 49.5262737 19.29499426 48.41796875 20.6953125 C47.84739746 21.4059082 47.27682617 22.11650391 46.68896484 22.84863281 C44.00938279 26.26182696 41.53813855 29.81254619 39.0625 33.375 C34.35248978 40.10680386 29.56753636 46.77971213 24.71508789 53.40966797 C20.28376168 59.50175764 16.19194777 65.71207835 12 72 C27.51 72 43.02 72 59 72 C59 74.97 59 77.94 59 81 C38.87 81 18.74 81 -2 81 C-2 72.0408805 -2 72.0408805 2.25 67.0625 C3.18057142 65.93385649 4.10748986 64.80219383 5.03125 63.66796875 C5.51980469 63.07419434 6.00835937 62.48041992 6.51171875 61.86865234 C9.0781255 58.64632995 11.40281754 55.25850928 13.75 51.875 C18.64143052 44.87450816 23.65807298 37.97631754 28.75292969 31.12255859 C33.93067693 24.14392323 38.94538307 17.0764637 44 10 C22.22 9.505 22.22 9.505 0 9 C0 6.03 0 3.06 0 0 Z " fill="#B626F3" transform="translate(448,32)"/>
<path d="M0 0 C0.48494931 10.9787135 0.51028231 19.31649902 -6.4375 28.375 C-12.01520935 34.08875104 -16.97500745 35.15431244 -24.75 35.375 C-31.16500795 35.32827257 -35.30194438 34.43910767 -40 30 C-43.42388839 26.25512208 -43.57445658 22.33681002 -43.4140625 17.4375 C-42.71356824 13.31383568 -41.12037932 11.78120765 -38 9 C-33.58862879 6.45007445 -29.35568284 5.26138142 -24.375 4.4375 C-23.68003418 4.31455566 -22.98506836 4.19161133 -22.26904297 4.06494141 C-16.94175393 3.13000768 -11.60236159 2.25976733 -6.2578125 1.4296875 C-3.93421463 0.98748029 -2.36071284 0 0 0 Z " fill="#FDFBFE" transform="translate(831,71)"/>
<path d="M0 0 C5.43900994 4.52060301 8.79138472 10.01305264 10 17 C10 19.31 10 21.62 10 24 C-6.5 24 -23 24 -40 24 C-40 15.56805398 -37.77839315 9.50941093 -32.32421875 3 C-22.97707947 -5.5950706 -10.84675121 -6.36462261 0 0 Z " fill="#FDFAFE" transform="translate(127,44)"/>
<path d="M0 0 C0 2.97 0 5.94 0 9 C-1.16015625 9.03867187 -1.16015625 9.03867187 -2.34375 9.078125 C-9.76394123 9.48219482 -15.92995827 10.21100974 -21.52734375 15.421875 C-25.75267821 20.17384535 -27.23553092 24.53740749 -27.31884766 30.80004883 C-27.33871735 31.94085403 -27.35858704 33.08165924 -27.37905884 34.2570343 C-27.39061005 35.47803329 -27.40216125 36.69903229 -27.4140625 37.95703125 C-27.43342865 39.21513107 -27.4527948 40.4732309 -27.4727478 41.76945496 C-27.52233077 45.10174319 -27.56363098 48.43392331 -27.60089111 51.76635742 C-27.64101624 55.17181239 -27.6920696 58.5771019 -27.7421875 61.98242188 C-27.83817488 68.65484131 -27.9232417 75.32733315 -28 82 C-30.97 82 -33.94 82 -37 82 C-37 55.27 -37 28.54 -37 1 C-34.03 1 -31.06 1 -28 1 C-27.67 4.63 -27.34 8.26 -27 12 C-26.01 10.7625 -25.02 9.525 -24 8.25 C-16.86183502 0.21422146 -10.52698879 -0.63161933 0 0 Z " fill="#B626F3" transform="translate(1118,31)"/>
<path d="M0 0 C3.3 0 6.6 0 10 0 C10 26.73 10 53.46 10 81 C6.7 81 3.4 81 0 81 C0 54.27 0 27.54 0 0 Z " fill="#BA30F3" transform="translate(527,32)"/>
<path d="M0 0 C3.3 0 6.6 0 10 0 C10 26.73 10 53.46 10 81 C6.7 81 3.4 81 0 81 C0 54.27 0 27.54 0 0 Z " fill="#BA30F3" transform="translate(414,32)"/>
<path d="M0 0 C3.3 0 6.6 0 10 0 C10 26.73 10 53.46 10 81 C6.7 81 3.4 81 0 81 C0 54.27 0 27.54 0 0 Z " fill="#BA30F3" transform="translate(294,32)"/>
<path d="M0 0 C2.875 1.625 2.875 1.625 5 4 C5.625 6.9375 5.625 6.9375 5 10 C2.51397551 13.36344489 1.08574477 14.80057749 -3.0625 15.5625 C-6 15 -6 15 -8.375 13.4375 C-10.62340519 10.06489221 -10.56783945 7.97487617 -10 4 C-7.25657347 -0.1151398 -4.81370572 -0.78591114 0 0 Z " fill="#B72AF3" transform="translate(964,99)"/>
<path d="M0 0 C2.375 1.0625 2.375 1.0625 4 3 C4.43060657 6.44485259 4.63335287 8.84506242 2.9375 11.9375 C-0.1652833 13.63902633 -2.53769185 13.42519574 -6 13 C-8.8520847 11.02547983 -9.81895125 9.90524375 -10.5 6.5 C-9.32731465 0.63657323 -5.5700283 -0.81229579 0 0 Z " fill="#B92DF3" transform="translate(535,5)"/>
<path d="M0 0 C2.375 1.0625 2.375 1.0625 4 3 C4.43060657 6.44485259 4.63335287 8.84506242 2.9375 11.9375 C-0.1652833 13.63902633 -2.53769185 13.42519574 -6 13 C-8.8520847 11.02547983 -9.81895125 9.90524375 -10.5 6.5 C-9.32731465 0.63657323 -5.5700283 -0.81229579 0 0 Z " fill="#B92DF3" transform="translate(422,5)"/>
<path d="M0 0 C2.375 1.0625 2.375 1.0625 4 3 C4.43060657 6.44485259 4.63335287 8.84506242 2.9375 11.9375 C-0.1652833 13.63902633 -2.53769185 13.42519574 -6 13 C-8.8520847 11.02547983 -9.81895125 9.90524375 -10.5 6.5 C-9.32731465 0.63657323 -5.5700283 -0.81229579 0 0 Z " fill="#B92DF3" transform="translate(302,5)"/>
</svg>
